<svg xmlns="http://www.w3.org/2000/svg" viewBox="0 0 79.313026 68.29069">
    <defs/>
    <path d="M13.62691688 35.3023913v19.23190152h24.67394585v-11.6173782h6.63579515v11.61789414h24.67446285V35.30290723H44.93665788v4.32531849h-6.63579515v-4.32531849zm5.10821556 2.85357365h17.75757304v14.09009473H18.73513244zm28.00966153.00052917h17.75808765v14.09009737H46.74479397z"/>
    <path fill="#504"
          d="M19.846731 33.25865l20.069395.0756 5.310952-.39675.359305.32615s10.075054-1.61227 9.469408-1.45697c-.605588.15528.557553 1.47494.557553 1.47494l12.884711-3.5696-1.368478 3.57231 11.361167-7.82273.82228-4.30504-1.44053-4.0867-3.10582 1.2183-6.614391 2.10839 2.570874-3.4447-2.257446-9.65793-3.598234 5.65054-6.642666 3.61596 5.163487-7.77737L58.484744 0l-8.437217 7.87989-25.265109 12.21543-8.513807-2.33863 2.703786 5.06304-15.168256-.4653 8.734738 3.9575L0 29.43996l10.698964 1.05116 8.636939 2.43054zM43.903493 58.0383h18.436271c2.121529 0 3.829475 1.70795 3.829475 3.82948v2.59344c0 2.12153-1.707946 3.82947-3.829475 3.82947H43.903493c-2.12153 0-3.829476-1.70794-3.829476-3.82947v-2.59344c0-2.12153 1.707946-3.82948 3.829476-3.82948z"/>
    <path fill="#f0f"
          d="M66.059589 60.95357c-10.299282 1.71558-15.982101 5.08129-18.776981 7.33387h15.056813c2.12149 0 3.829282-1.70811 3.829282-3.8296v-2.59301c0-.3143-.03854-.61929-.109297-.91122z"/>
    <path fill="#0f6" d="M23.761386 41.96357h6.829427v6.7222h-6.829427zM52.302639 41.96357h6.829427v6.7222h-6.829427z"/>
</svg>